<svg xmlns="http://www.w3.org/2000/svg" xmlns:svg="http://www.w3.org/2000/svg" xmlns:xlink="http://www.w3.org/1999/xlink" id="svg4026" width="24" height="24" version="1.1"><defs id="defs4028"><linearGradient id="linearGradient3991" x1="11.588" x2="13.168" y1="11.647" y2="10.085" gradientTransform="translate(0,8)" gradientUnits="userSpaceOnUse" xlink:href="#linearGradient3985"/><linearGradient id="linearGradient3985"><stop id="stop3987" offset="0" stop-color="#000" stop-opacity="1"/><stop id="stop3989" offset="1" stop-color="#000" stop-opacity="0"/></linearGradient><linearGradient id="linearGradient3949" x1="14.712" x2="14.712" y1="5.983" y2="18.78" gradientTransform="translate(0,8)" gradientUnits="userSpaceOnUse" xlink:href="#linearGradient3943"/><linearGradient id="linearGradient3943"><stop id="stop3945" offset="0" stop-color="#fff" stop-opacity="1"/><stop id="stop3947" offset="1" stop-color="#fff" stop-opacity="0"/></linearGradient><linearGradient id="linearGradient3775" x1="15.754" x2="15.754" y1="3.038" y2="20.558" gradientTransform="translate(0,8)" gradientUnits="userSpaceOnUse" xlink:href="#linearGradient3769"/><linearGradient id="linearGradient3769"><stop id="stop3771" offset="0" stop-color="#fff4ba" stop-opacity="1"/><stop id="stop3773" offset="1" stop-color="#e9c318" stop-opacity="1"/></linearGradient><linearGradient id="linearGradient3796"><stop id="stop3798" offset="0" stop-color="#fd8900" stop-opacity="1"/><stop id="stop3800" offset="1" stop-color="#fbb200" stop-opacity="1"/></linearGradient><linearGradient id="linearGradient4024" x1="19.89" x2="19.89" y1=".017" y2="24.141" gradientTransform="translate(0,8)" gradientUnits="userSpaceOnUse" xlink:href="#linearGradient3796"/></defs><metadata id="metadata4031"/><g id="layer1" transform="translate(0,-8)"><path id="path2995" fill="url(#linearGradient4024)" fill-opacity="1" stroke="none" d="M 0,8 24,32 24,8 z"/><path id="path3838" fill="#bd6700" fill-opacity="1" stroke="none" d="M 12.90625,10 A 0.99028088,0.99028088 0 0 0 12.125,10.5625 L 9.9375,15 8,15 A 0.99028088,0.99028088 0 0 0 7.3125,15.3125 L 18.625,26.625 a 0.99028088,0.99028088 0 0 0 0.25,-1.03125 l -1.25,-2.9375 4.65625,-6.0625 A 0.99028088,0.99028088 0 0 0 21.5,15 L 16.09375,15 13.875,10.5625 A 0.99028088,0.99028088 0 0 0 12.90625,10 z" opacity=".25"/><path id="path3765" fill="url(#linearGradient3775)" fill-opacity="1" stroke="none" d="M 13,11 10.53125,16 8,16 17.96875,25.96875 16.5,22.5 l 5,-6.5 -6,0 -2.5,-5 z"/><path id="path3906" fill="none" stroke="url(#linearGradient3949)" stroke-linecap="butt" stroke-linejoin="miter" stroke-opacity="1" stroke-width="1" d="m 7.9572747,16.5 2.8915763,0 L 13,12.201532 15.151149,16.5 l 5.327488,0 -4.554211,5.877872 1.554211,3.765619" opacity=".3"/><path id="path2995-9" fill="url(#linearGradient3991)" fill-opacity="1" stroke="none" d="M 0,8 24,32 24,8 z" opacity=".1"/></g></svg>