<svg xmlns="http://www.w3.org/2000/svg" xmlns:osb="http://www.openswatchbook.org/uri/2009/osb" xmlns:svg="http://www.w3.org/2000/svg" id="svg7384" width="24" height="24" enable-background="new" version="1.1"><metadata id="metadata90"/><title id="title8473">Paper Symbolic Icon Theme</title><defs id="defs7386"><linearGradient id="linearGradient5606" osb:paint="solid"><stop id="stop5608" offset="0" stop-color="#000" stop-opacity="1"/></linearGradient></defs><g id="layer12" display="inline" transform="translate(-265.0004,-172.99664)"><path id="path4308" fill="#777" fill-opacity="1" fill-rule="evenodd" stroke="none" stroke-linecap="butt" stroke-linejoin="miter" stroke-opacity="1" stroke-width="1" d="M 20.611328,2.1992188 C 17.579338,2.4180788 12.84962,5.8316181 10.21875,8.8613281 7.05015,12.510258 4.0005125,21.00356 4.5078125,22.1875 c 0.84132,0.0421 4.4445094,-6.18618 6.6621095,-8.09375 2.26921,-1.95196 6.247799,-0.796318 6.662109,-3.330078 -0.95184,-0.9518601 -3.804687,0 -3.804687,0 1.90369,-1.9036901 5.472071,-0.297238 5.769531,-2.7363282 0.22445,-1.4152401 -4.166016,-0.4160157 -4.166016,-0.4160157 1.22512,-1.27839 4.45482,-0.7635668 5,-1.6542969 1.05332,-1.7208699 1.010433,-3.7578124 0.564453,-3.7578124 -0.185909,-0.0149 -0.381854,-0.0146 -0.583984,0 z M 4,5.0039062 c 0,0 -1,0 -1,1 l 0,7.4999998 c 0,0.5 0.5,0.5 0.5,0.5 l 1,0 c 0,0 0.5,0 0.5,-0.5 l 0,-6.4999998 4.5,0 c 0.5,0 0.5,-0.5 0.5,-0.5 l 0,-1 c 0,0 0,-0.5 -0.5,-0.5 z m 15.5,7.9999998 c -0.5,0 -0.5,0.5 -0.5,0.5 l 0,4.5 -8.5,0 c 0,0 -0.5,-4e-5 -0.5,0.5 l 0,1 c 0,0.5 0.5,0.5 0.5,0.5 l 9.5,0 c 0,0 1,0 1,-1 l 0,-5.5 c 0,-0.5 -0.5,-0.5 -0.5,-0.5 z" transform="translate(265.0004,172.99664)"/></g></svg>