<svg xmlns="http://www.w3.org/2000/svg" xmlns:osb="http://www.openswatchbook.org/uri/2009/osb" xmlns:svg="http://www.w3.org/2000/svg" id="svg7384" width="24" height="24" enable-background="new" version="1.1"><metadata id="metadata90"/><title id="title8473">Paper Symbolic Icon Theme</title><defs id="defs7386"><linearGradient id="linearGradient5606" osb:paint="solid"><stop id="stop5608" offset="0" stop-color="#000" stop-opacity="1"/></linearGradient></defs><g id="layer12" display="inline" transform="translate(-305.0004,-172.99664)"><path id="path6073" fill="#777" fill-opacity="1" fill-rule="nonzero" stroke="none" d="M 12 2.0957031 L 1 12.833984 L 3.0957031 14.976562 L 4.6660156 13.619141 L 5.7148438 22 L 18.285156 22 L 19.333984 13.619141 L 20.904297 14.927734 L 23 12.833984 L 12 2.0957031 z M 12 10.003906 C 13.656854 10.003906 15 11.347052 15 13.003906 C 15 14.66076 13.656854 16.003906 12 16.003906 C 10.343146 16.003906 9 14.66076 9 13.003906 C 9 11.347052 10.343146 10.003906 12 10.003906 z M 12 18.003906 A 1 1 0 0 1 13 19.003906 A 1 1 0 0 1 12 20.003906 A 1 1 0 0 1 11 19.003906 A 1 1 0 0 1 12 18.003906 z" color="#000" display="inline" enable-background="accumulate" opacity="1" overflow="visible" transform="translate(305.0004,172.99664)" visibility="visible" style="marker:none"/></g></svg>