<svg xmlns="http://www.w3.org/2000/svg" xmlns:svg="http://www.w3.org/2000/svg" xmlns:xlink="http://www.w3.org/1999/xlink" id="svg4216" width="24" height="24" version="1.1"><defs id="defs4218"><linearGradient id="linearGradient3991" x1="11.588" x2="13.168" y1="11.647" y2="10.085" gradientTransform="translate(0,8)" gradientUnits="userSpaceOnUse" xlink:href="#linearGradient3985"/><linearGradient id="linearGradient3985"><stop id="stop3987" offset="0" stop-color="#000" stop-opacity="1"/><stop id="stop3989" offset="1" stop-color="#000" stop-opacity="0"/></linearGradient><linearGradient id="linearGradient4110" x1="18" x2="18" y1="4" y2="16" gradientTransform="translate(0,8)" gradientUnits="userSpaceOnUse" xlink:href="#linearGradient4104"/><linearGradient id="linearGradient4104"><stop id="stop4106" offset="0" stop-color="#baff88" stop-opacity="1"/><stop id="stop4108" offset="1" stop-color="#9cfe69" stop-opacity="1"/></linearGradient><linearGradient id="linearGradient3796"><stop id="stop3798" offset="0" stop-color="#548833" stop-opacity="1"/><stop id="stop3800" offset="1" stop-color="#6e9d4c" stop-opacity="1"/></linearGradient><linearGradient id="linearGradient4214" x1="19.89" x2="19.89" y1=".017" y2="24.141" gradientTransform="translate(0,8)" gradientUnits="userSpaceOnUse" xlink:href="#linearGradient3796"/></defs><metadata id="metadata4221"/><g id="layer1" transform="translate(0,-8)"><path id="path2995" fill="url(#linearGradient4214)" fill-opacity="1" stroke="none" d="M 0,8 24,32 24,8 z"/><path id="path4182" fill="#385527" fill-opacity="1" stroke="none" d="m 6.65625,3.03125 a 0.96881671,0.96881671 0 0 0 -0.5625,1.6875 l 3.25,3 A 0.96881671,0.96881671 0 0 0 10,7.96875 l 6.09375,0 0,2.0625 -2.59375,0 a 0.96881671,0.96881671 0 0 0 -0.6875,1.65625 l 5,5 a 0.96881671,0.96881671 0 0 0 1.375,0 l 5,-5 A 0.96881671,0.96881671 0 0 0 23.5,10.03125 l -2.53125,0 0,-6.03125 A 0.96881671,0.96881671 0 0 0 20,3.03125 l -13.25,0 a 0.96881671,0.96881671 0 0 0 -0.09375,0 z" opacity=".25" transform="translate(0,8)"/><path id="path4102" fill="url(#linearGradient4110)" fill-opacity="1" stroke="none" d="m 6.75,12 13.25,0 0,7 3.5,0 -5,5 -5,-5 3.565557,0 0,-4 L 10,15 z"/><path id="path2995-9" fill="url(#linearGradient3991)" fill-opacity="1" stroke="none" d="M 0,8 24,32 24,8 z" opacity=".1"/></g></svg>