<svg xmlns="http://www.w3.org/2000/svg" xmlns:osb="http://www.openswatchbook.org/uri/2009/osb" xmlns:svg="http://www.w3.org/2000/svg" id="svg7384" width="24" height="24" enable-background="new" version="1.1"><metadata id="metadata90"/><title id="title8473">Paper Symbolic Icon Theme</title><defs id="defs7386"><linearGradient id="linearGradient5606" osb:paint="solid"><stop id="stop5608" offset="0" stop-color="#000" stop-opacity="1"/></linearGradient></defs><g id="layer12" display="inline" transform="translate(-285.0004,-172.99664)"><path id="path3059" fill="#777" fill-opacity="1" fill-rule="nonzero" stroke="none" stroke-width="1.039" d="m 301.42481,175.10267 c -0.88277,-0.31618 -1.83281,0.099 -2.2341,0.92335 -2.75588,-0.16653 -5.39684,1.48605 -6.37414,4.21805 -0.87003,2.4746 -2.62922,5.67265 -3.53897,5.83818 -0.18388,0.10372 -0.3386,0.27075 -0.41565,0.48612 -0.16997,0.47515 0.0754,0.99461 0.55037,1.1647 l 13.28634,4.75851 c 0.47488,0.17009 0.99402,-0.0756 1.16401,-0.55068 0.077,-0.21537 0.0634,-0.4427 -0.0129,-0.63962 -0.59814,-0.70558 0.0704,-4.29424 0.96742,-6.7592 0.97737,-2.73198 -0.0157,-5.68609 -2.2512,-7.30724 0.21267,-0.89193 -0.25829,-1.81602 -1.14106,-2.13217 z m -6.22404,16.6387 c -0.42363,1.18423 0.38427,2.55658 1.8045,3.06524 1.42023,0.50866 2.91497,-0.039 3.3386,-1.22323 z" color="#000" display="inline" enable-background="accumulate" opacity="1" overflow="visible" visibility="visible" style="marker:none"/></g></svg>