<svg xmlns="http://www.w3.org/2000/svg" xmlns:osb="http://www.openswatchbook.org/uri/2009/osb" xmlns:svg="http://www.w3.org/2000/svg" id="svg7384" width="24" height="24" enable-background="new" version="1.1"><metadata id="metadata90"/><title id="title8473">Paper Symbolic Icon Theme</title><defs id="defs7386"><linearGradient id="linearGradient5606" osb:paint="solid"><stop id="stop5608" offset="0" stop-color="#000" stop-opacity="1"/></linearGradient></defs><g id="layer12" display="inline" transform="translate(-265.0004,-172.99664)"><path id="path8211-7" fill="#777" fill-opacity="1" fill-rule="nonzero" stroke="none" stroke-width="1.039" d="M 5.8085938 2.0097656 L 2 11.990234 L 2 21.990234 L 22 21.990234 L 22 11.990234 L 20.351562 7.671875 C 19.57419 8.3835503 18.587641 8.8671778 17.490234 8.9765625 L 19 13.003906 L 16 13.003906 L 15 16.003906 L 9 16.003906 L 8 13.003906 L 5 13.003906 L 8 5.0039062 L 12.101562 5.0039062 C 12.034356 4.680038 12 4.3461225 12 4.0039062 C 12 3.2965525 12.156512 2.6228206 12.427734 2.0097656 L 5.8085938 2.0097656 z M 17 3.0039062 C 16.42403 3.0039062 16 3.4279362 16 4.0039062 C 16 4.5798763 16.42403 5.0039062 17 5.0039062 C 17.57597 5.0039062 18 4.5798763 18 4.0039062 C 18 3.4279362 17.57597 3.0039062 17 3.0039062 z" color="#000" display="inline" enable-background="accumulate" opacity="1" overflow="visible" transform="translate(265.0004,172.99664)" visibility="visible" style="marker:none"/><path id="path4300" fill="#777" fill-opacity="1"/><circle id="path8071" cx="282" cy="177" r="3" fill="#d33636" fill-opacity="1" fill-rule="evenodd" stroke="none" stroke-dasharray="none" stroke-dashoffset="0" stroke-linecap="round" stroke-linejoin="round" stroke-miterlimit="4" stroke-opacity="1" stroke-width="2" clip-rule="nonzero" color="#000" color-interpolation="sRGB" color-interpolation-filters="linearRGB" color-rendering="auto" display="inline" enable-background="accumulate" image-rendering="auto" opacity="1" overflow="visible" shape-rendering="auto" text-rendering="auto" visibility="visible" style="isolation:auto;mix-blend-mode:normal;solid-color:#000;solid-opacity:1"/></g></svg>